<?xml version="1.0" standalone="no"?>
<svg viewBox="0 0 200 200" xmlns="http://www.w3.org/2000/svg">
  <path fill="#D0E2FF" d="M44.8,-76.6C58.7,-69.6,71,-58.8,78.8,-45.4C86.7,-32,90.1,-16,90.2,0C90.3,16.1,87,32.2,79.5,46.3C72.1,60.4,60.5,72.6,46.5,79.2C32.6,85.8,16.3,87,0.8,85.6C-14.6,84.1,-29.3,80.1,-42.5,73C-55.6,65.9,-67.3,55.8,-75.7,43.1C-84.1,30.4,-89.1,15.2,-88.8,0.2C-88.4,-14.8,-82.6,-29.5,-74.9,-43.4C-67.1,-57.2,-57.5,-70,-44.7,-77.7C-31.9,-85.3,-16,-87.8,-0.2,-87.3C15.5,-86.9,30.9,-83.7,44.8,-76.6Z" transform="translate(100 100)" />
</svg>
